<?xml version="1.0" standalone="no"?>
<!DOCTYPE svg PUBLIC "-//W3C//DTD SVG 20010904//EN"
 "http://www.w3.org/TR/2001/REC-SVG-20010904/DTD/svg10.dtd">
<svg version="1.0" xmlns="http://www.w3.org/2000/svg"
 width="300.000000pt" height="300.000000pt" viewBox="0 0 300.000000 300.000000"
 preserveAspectRatio="xMidYMid meet">
<metadata>
Created by potrace 1.11, written by Peter Selinger 2001-2013
</metadata>
<g transform="translate(0.000000,300.000000) scale(0.100000,-0.100000)"
fill="#000000" stroke="none">
<path d="M0 1500 l0 -1500 695 0 695 0 0 195 0 195 95 0 95 0 0 -195 0 -195
710 0 710 0 0 1500 0 1500 -1500 0 -1500 0 0 -1500z m1742 1032 c350 -94 627
-354 731 -687 41 -131 50 -208 45 -361 -5 -111 -11 -157 -32 -229 -106 -358
-360 -612 -721 -722 -84 -25 -102 -27 -275 -27 -173 0 -191 2 -274 27 -368
113 -632 384 -727 745 -29 110 -36 309 -15 430 37 212 126 382 286 543 156
158 311 244 520 290 116 26 350 21 462 -9z"/>
<path d="M1400 2241 c-291 -41 -527 -248 -601 -528 -30 -110 -30 -261 0 -368
58 -207 199 -374 392 -465 100 -46 181 -63 299 -63 121 0 200 17 305 67 65 31
186 114 201 138 4 5 -5 22 -19 36 l-25 25 -46 -40 c-63 -55 -170 -110 -262
-133 -338 -87 -687 124 -774 466 -102 397 208 794 620 794 279 0 522 -182 616
-460 24 -69 26 -270 5 -344 -14 -47 -14 -49 10 -67 13 -10 29 -17 34 -15 22 6
47 131 48 241 1 131 -16 205 -73 320 -71 145 -169 245 -310 320 -120 62 -292
93 -420 76z"/>
<path d="M1052 1578 c3 -182 4 -195 27 -231 29 -47 87 -78 162 -84 119 -11
214 38 238 122 6 22 11 117 11 213 l0 172 -65 0 -65 0 0 -154 c0 -174 -4 -206
-32 -235 -28 -31 -88 -28 -119 5 -23 25 -24 31 -27 205 l-4 179 -65 0 -65 0 4
-192z"/>
<path d="M1570 1520 l0 -250 190 0 190 0 0 45 0 44 -122 3 -123 3 -3 203 -2
202 -65 0 -65 0 0 -250z"/>
<path d="M2017 1212 c-22 -24 -21 -65 1 -85 40 -36 95 -11 95 43 0 54 -61 81
-96 42z"/>
</g>
</svg>
